<svg xmlns="http://www.w3.org/2000/svg" width="512" height="512" viewBox="0 0 512 512" version="1.1">
	<path d="M 0 256.002 L 0 512.004 256.250 511.752 L 512.500 511.500 512.752 255.750 L 513.004 0 256.502 0 L 0 0 0 256.002 M 0.492 256.500 C 0.492 397.300, 0.608 454.751, 0.750 384.170 C 0.892 313.588, 0.892 198.388, 0.750 128.170 C 0.608 57.951, 0.492 115.700, 0.492 256.500 M 212 143.506 L 212 148.012 294.750 147.756 L 377.500 147.500 377.807 143.250 L 378.115 139 295.057 139 L 212 139 212 143.506 M 228.367 165.750 C 228.680 169.463, 229.435 185.325, 230.045 201 C 230.655 216.675, 231.330 230.400, 231.545 231.500 C 231.796 232.781, 234.375 234.758, 238.718 237 C 242.448 238.925, 245.797 240.500, 246.159 240.500 C 246.522 240.500, 248.683 237.708, 250.961 234.296 C 258.779 222.588, 268.828 215.497, 282.585 211.978 C 291.711 209.644, 296.163 209.539, 305.163 211.447 C 318.195 214.209, 329.701 221.546, 337.014 231.759 C 339.206 234.821, 341 237.728, 341 238.219 C 341 238.710, 338.876 240.052, 336.279 241.201 L 331.558 243.289 329.529 240.394 C 325.630 234.833, 318.645 228.951, 312.125 225.738 C 306.449 222.941, 304.322 222.458, 296.526 222.188 C 289.433 221.943, 286.251 222.313, 281.670 223.912 C 271.473 227.472, 263.107 234.895, 258.053 244.867 L 255.840 249.234 259.670 252.936 C 265.087 258.174, 271.173 266.252, 270.266 267 C 269.845 267.348, 267.515 268.491, 265.089 269.540 L 260.679 271.449 257.603 267.474 C 245.828 252.258, 228.307 241.788, 209 238.430 C 195.311 236.050, 165.649 236.895, 155.027 239.968 C 139.342 244.507, 123.611 255.092, 114.461 267.264 C 106.700 277.588, 101.004 290.430, 99.496 301 C 99.143 303.475, 98.631 306.288, 98.360 307.250 C 97.893 308.902, 101.085 309, 155.433 309 L 213 309 213 314.500 L 213 320 151.934 320 C 107.583 320, 90.276 320.317, 88.705 321.158 C 85.450 322.900, 83.951 324.685, 83.022 327.925 C 81.966 331.605, 84.424 336.935, 88 338.721 C 89.916 339.679, 104.797 339.974, 151.750 339.985 L 213 340 213 345.750 L 213 351.500 156 351.234 C 114.113 351.038, 99 351.267, 99 352.098 C 99 354.914, 104.607 363.093, 108.359 365.753 C 115.736 370.981, 115.945 371, 166.149 371 L 213 371 213 391.845 C 213 410.769, 213.169 412.843, 214.829 414.345 C 216.503 415.861, 224.663 416, 311.674 416 C 402.454 416, 406.764 415.918, 408.345 414.171 C 409.814 412.548, 410 408.678, 410 379.809 L 410 347.276 423.250 342.069 C 438.854 335.936, 441 334.688, 441 331.744 C 441 330.022, 419.222 273.726, 414.986 264.500 C 414.482 263.400, 410.440 253.296, 406.005 242.047 C 401.570 230.797, 397.185 220.757, 396.260 219.735 C 394.266 217.531, 394.999 217.344, 378.060 224.375 C 370.669 227.444, 364.400 229.733, 364.129 229.463 C 363.859 229.192, 364.343 213.565, 365.206 194.736 C 366.068 175.906, 366.573 160.162, 366.328 159.750 C 366.083 159.338, 334.813 159, 296.839 159 L 227.797 159 228.367 165.750 M 378.500 234.466 C 372.450 236.892, 339.825 249.867, 306 263.299 C 272.175 276.730, 243.600 288.120, 242.500 288.610 C 241.161 289.206, 244.545 289.593, 252.738 289.781 C 262.189 289.997, 265.492 289.726, 267.238 288.590 C 270.079 286.742, 359.429 251.060, 362.926 250.377 C 364.932 249.985, 366.441 250.756, 369.761 253.869 C 374.523 258.334, 383.129 262, 388.846 262 C 390.921 262, 393.319 262.563, 394.177 263.250 C 395.035 263.938, 397.900 270.012, 400.543 276.750 C 403.786 285.014, 406.107 289.495, 407.675 290.523 C 409.995 292.043, 410 292.097, 410 314.630 C 410 332.318, 410.271 337.097, 411.250 336.675 C 411.938 336.379, 416.100 334.727, 420.500 333.004 C 424.900 331.282, 428.866 329.512, 429.314 329.072 C 430.210 328.192, 391.789 230.747, 390.377 230.319 C 389.895 230.173, 384.550 232.039, 378.500 234.466 M 191 257.500 L 191 263 196.500 263 L 202 263 202 257.500 L 202 252 196.500 252 L 191 252 191 257.500 M 134 262.448 L 134 268 139.552 268 L 145.105 268 144.802 262.750 L 144.500 257.500 139.250 257.198 L 134 256.895 134 262.448 M 326.263 274.420 C 306.882 282.241, 290.720 288.947, 290.346 289.320 C 289.972 289.694, 313.367 290, 342.333 290 C 371.506 290, 395 289.612, 395 289.131 C 395 288.652, 393.495 284.521, 391.655 279.949 L 388.309 271.637 382.273 270.405 C 375.476 269.019, 371.177 267.044, 365.856 262.863 C 363.852 261.288, 362.052 260.045, 361.856 260.099 C 361.660 260.154, 345.643 266.598, 326.263 274.420 M 128 283.500 L 128 289 134 289 L 140 289 140 283.500 L 140 278 134 278 L 128 278 128 283.500 M 222 282.370 L 222 286.741 227.483 284.620 C 231.860 282.928, 232.969 282.046, 232.983 280.250 C 232.999 278.187, 232.542 278, 227.500 278 L 222 278 222 282.370 M 175 288.500 L 175 294 180.500 294 L 186 294 186 288.500 L 186 283 180.500 283 L 175 283 175 288.500 M 222 352.500 L 222 406 311.500 406 L 401 406 401 352.500 L 401 299 311.500 299 L 222 299 222 352.500 M 250.714 313.511 C 247.385 320.298, 241.904 325.692, 235.984 328.006 L 231.500 329.759 231.500 352.123 L 231.500 374.487 236.933 377.232 C 244.133 380.869, 247.658 384.355, 250.854 391 L 253.500 396.500 311.494 396.500 L 369.487 396.500 372.265 391 C 375.751 384.095, 379.067 380.761, 386.019 377.170 L 391.500 374.338 391.783 353.919 C 391.939 342.689, 391.835 332.600, 391.552 331.500 C 391.230 330.243, 388.967 328.609, 385.466 327.103 C 379.241 324.425, 374.208 319.080, 371.480 312.250 L 369.783 308 311.600 308 L 253.417 308 250.714 313.511 M 257.917 320.200 C 256.279 324.154, 247.021 333.335, 242.985 335.006 L 240 336.243 240 352.513 L 240 368.783 242.379 369.380 C 245.812 370.242, 254.391 378.284, 257.456 383.515 L 260.084 388 311.516 388 L 362.949 388 364.374 385.250 C 366.777 380.613, 373.963 373.106, 378.599 370.389 L 383 367.810 383 352.026 L 383 336.243 379.830 334.930 C 375.835 333.275, 366.709 324.224, 364.889 320.111 L 363.512 317 311.377 317 L 259.243 317 257.917 320.200 M 305.500 325.884 C 300.795 327.120, 294.751 330.551, 291.809 333.658 C 284.607 341.263, 282.689 355.333, 287.591 364.601 C 290.920 370.897, 292.297 372.385, 297.897 375.741 C 302.012 378.208, 303.454 378.500, 311.500 378.500 C 319.628 378.500, 320.964 378.222, 325.289 375.632 C 343.490 364.732, 342.376 337.792, 323.324 328.149 C 318.649 325.782, 310.049 324.690, 305.500 325.884 M 302.238 337.574 C 292.067 343.669, 291.120 357.630, 300.330 365.716 C 308.192 372.620, 320.600 370.644, 326.566 361.539 C 331.794 353.561, 328.004 341.156, 318.901 336.449 C 314.423 334.133, 307.160 334.623, 302.238 337.574 M 258.809 346.722 C 255.602 348.712, 254.508 352.198, 256.126 355.271 C 257.669 358.202, 258.929 358.966, 262.250 358.985 C 268.563 359.020, 271.339 350.985, 266.365 347.073 C 263.208 344.589, 262.315 344.548, 258.809 346.722 M 356.707 347.016 C 351.665 350.982, 354.381 359.020, 360.750 358.985 C 364.085 358.966, 365.330 358.203, 366.906 355.212 C 370.166 349.022, 362.247 342.658, 356.707 347.016 M 260.533 350.947 C 259.653 352.370, 260.775 354, 262.632 354 C 263.508 354, 264.010 353.297, 263.823 352.333 C 263.434 350.324, 261.437 349.484, 260.533 350.947 M 359.688 350.646 C 358.314 352.020, 359.026 354.142, 360.750 353.810 C 361.712 353.624, 362.500 352.841, 362.500 352.070 C 362.500 350.491, 360.736 349.598, 359.688 350.646" stroke="none" fill="black" fill-rule="evenodd"/>
</svg>