<svg xmlns="http://www.w3.org/2000/svg" fill="none" viewBox="0 0 200 200"><g id="about-us-1"><g id="Group"><g id="Group_2"><g id="Group_3"><path id="Vector" fill="#3D9CFB" d="M140 147.08C124.39 149.53 119.43 137.43 119.43 137.43C110.03 142.14 106.87 151.3 104.82 157.06C99 173.42 101.82 188.25 107.62 189.16C107.62 189.16 105.45 173.16 117.85 167.1C123.174 164.449 129.08 163.183 135.023 163.419C140.966 163.655 146.753 165.385 151.85 168.45C151.34 164.6 150.545 160.792 149.47 157.06C143.13 162.7 140.61 152.11 140 147.08Z"></path><path id="Vector_2" fill="#3D9CFB" d="M187.35 152.36C185.86 130.36 175.81 129.1 175.81 129.1C175.49 135.26 173.89 136.97 172.61 139.74C184.13 163.2 180.55 179.99 173.61 187.43C188.75 187 188.25 165.6 187.35 152.36Z"></path><path id="Vector_3" fill="#3D9CFB" d="M163.92 66.77C170.6 46.09 156.75 41 156.75 41C159.45 32.75 156.24 27.09 150.82 26.15C149.42 16.43 141.17 5.67998 120.03 7.28998C98.89 8.89998 96.42 18.25 96 25.55C90.81 25.73 85.19 27.6 85.64 39.55C69.39 47.23 83.79 70.23 83.79 70.23C88.2419 67.022 93.002 64.2651 98 62C91.82 51.14 95.14 33 97.22 30.16C99.3 27.32 104.71 27.03 113.13 28.02C121.55 29.01 128.13 25.8 132.23 19.73C132.08 27.61 134.83 28.23 139.82 30.34C147.41 33.56 144.88 50.14 140.87 60.92C155.93 69.06 156.27 72.86 158.42 80.47C164.65 79.47 168.04 81.29 168.04 81.29C170.93 69.75 163.92 66.77 163.92 66.77Z"></path><path id="Vector_4" fill="#001434" d="M121.45 58.55C116.9 59.08 113.85 57.04 113.67 59.26C113.49 61.48 118.81 61.72 121.92 60.57C123 60.17 123.28 58.33 121.45 58.55Z"></path><path id="Vector_5" fill="#001434" d="M110.8 39.68C111.8 31.02 102.27 30.34 96.13 32.41C94.13 33.1 93.13 35.8 92.84 37.84C91.97 44.7 96.69 45.84 102.92 45.96C107.6 46.07 110.22 44.4 110.8 39.68ZM106.51 43.13C104.71 43.97 97.51 43.74 95.96 42.13C99.46 40.56 104.51 38.13 107.7 35.55C108.74 37.43 109.13 41.43 106.51 43.13V43.13Z"></path><path id="Vector_6" fill="#001434" d="M31.72 104.1C32.56 104.42 36.18 101.72 39.72 102.19C39.8895 102.198 40.0589 102.172 40.2177 102.112C40.3765 102.052 40.5213 101.96 40.6432 101.842C40.7651 101.724 40.8614 101.582 40.9262 101.425C40.991 101.268 41.0229 101.1 41.02 100.93C41.44 97.41 27.39 102.48 31.72 104.1Z"></path><path id="Vector_7" fill="#001434" d="M114.92 46C117.29 46 114.3 42.26 116.4 40.59C118.35 39.05 121.08 42.67 122.48 40.94C122.571 40.8128 122.635 40.6683 122.668 40.5155C122.701 40.3626 122.703 40.2046 122.673 40.0511C122.643 39.8976 122.582 39.7518 122.494 39.6227C122.406 39.4935 122.292 39.3837 122.16 39.3C118.3 36.71 115.89 38.14 114.94 38.74C112.1 40.5 112.53 46 114.92 46Z"></path><path id="Vector_8" fill="#001434" d="M130.86 109.16C125.64 109.16 122.86 112.86 122.94 116.16C123.03 119.01 125.27 120.76 130.08 120.96C135.56 121.19 138.03 119.28 138.08 116.16C138.13 113.04 135.7 109.27 130.86 109.16ZM130.05 118.39C122.36 119.06 125.47 112.04 130.12 111.78C129.805 113.971 129.781 116.193 130.05 118.39V118.39Z"></path><path id="Vector_9" fill="#001434" d="M114.78 48.8C113.34 49.3 114.29 51.8 115.59 51.01C118.06 49.5 121.59 52.22 122.01 50.31C122.43 48.4 117.17 47.68 114.78 48.8Z"></path><path id="Vector_10" fill="#001434" d="M185.06 130.86C194.94 109.63 188.34 92.21 177.78 83.74C178.04 78.74 176.42 71.85 172.69 68.24C178.69 60.24 174.78 44.44 165.11 40.86C169.67 33.7 164.89 23.06 156.11 22.86C153.7 3.24998 91.11 -2.45002 89.37 23.32C82.24 24.13 78.59 32.09 80.37 38.81C68.37 42.59 67.8 62.06 74.49 70.7C73.66 72.1 72.06 73.97 71.33 75.82C69.803 74.4138 67.9286 73.4403 65.9 73C51.24 69 11.66 76.37 12.48 100.46C2.29 104.46 7.96 126.99 14.48 130.12C-1.25 147.92 1.48 193.12 31.09 193.95C53.16 191.95 82.44 173.59 84.56 155.34C85.63 145.89 82.24 136.92 73.08 134.94C78.6304 131.771 82.8811 126.741 85.08 120.74C91 122.89 94.42 126.74 95.3 129.74C88.13 137.02 88.17 153.37 96.46 159.88C94.4 172.73 94.89 183.47 103.89 188.88C113.68 194.78 149.04 195.76 160.01 185.63C169.01 191.39 182.76 189.63 188.22 180.83C193.84 171.94 201.43 140.53 185.06 130.86ZM74 48.37C76.13 41.66 83.11 41.21 83 39.37C82.73 35.59 82.24 31.83 84.18 29.07C84.8977 28.0505 85.8418 27.2111 86.9383 26.6177C88.0349 26.0243 89.254 25.6931 90.5 25.65C92.76 25.52 91.12 17.78 97.03 14.05C110.49 4.15998 152.84 7.82998 153.85 24.13C153.872 24.423 154.002 24.6974 154.214 24.9005C154.426 25.1036 154.706 25.2209 155 25.23C163.18 24.61 167.29 34.78 162.32 40.75C162.201 40.9032 162.122 41.0833 162.09 41.2744C162.057 41.4655 162.072 41.6616 162.134 41.8454C162.195 42.0293 162.301 42.1952 162.441 42.3286C162.582 42.4619 162.753 42.5586 162.94 42.61C172.18 44.99 175.69 58.33 171.4 66.17C169.96 68.82 170.78 69.17 171.73 70.6C174.13 74.15 175.73 78.84 175.37 82.7C171.68 79.9 166.3 79.12 166.3 79.12C163.83 69.55 158.79 63.59 145.76 58.8C150.76 49.12 150.51 37.38 146.86 31.96C142.53 25.54 132.14 31.96 133.77 20.5C134.06 18.5 131.85 16.94 130.1 19.62C121.58 32.74 97.94 22.18 91.1 28.77C85 34.72 87 53 91.34 58.38C84.63 61.61 79.42 64.21 75.91 68.66C71.85 62.52 72.17 54.13 74 48.37ZM114.06 67.09C104.38 66 95.53 60.75 92.49 56C90 52 88 36.27 93 30.28C94.06 28.75 101.1 28.77 104.54 28.94C108.73 29.16 109.06 31.6 110.6 31.73C111.6 31.82 112.45 30.54 110.76 29.08C118.3 29.5 128.34 28.3 131.42 22.18C131.357 24.2367 131.972 26.2571 133.17 27.93C129.17 27.93 127.96 28.21 128.17 29.52C128.44 31.26 135.72 30.15 139.87 30.79C150.11 32.36 147.5 50.35 143.87 56.79C140.24 63.23 134.07 69.39 114.06 67.09ZM141.45 84.41C132.58 83.98 122.57 85.16 116.52 94.41C115.17 90.64 115.13 85.01 116.27 83.71C118.41 81.29 124.08 83.48 124.83 78.46C125.53 73.81 131.75 72.89 134.27 77.87C135.35 80.02 137.42 80.36 140.47 80.08C142.42 79.92 142.54 83.73 141.45 84.41ZM40.25 77.05C53.76 73.64 65.9 73.05 71.12 78.91C57.3 73.91 18.84 83.08 15.02 99.07C15.21 93.23 20.54 82 40.25 77.05ZM10 115.91C9.24 110.55 10 108.79 10.8 106.91C11.8 104.7 15.54 104.99 18 114.91C18.58 117.28 20.65 117.18 20.18 115.19C18.7 108.95 16.45 103.19 12.36 103.37C23 99 25.8 124.8 20.54 128.06C14.94 130.63 11.18 124.58 10 115.91ZM14.29 182.56C4.06 168.35 5.75 143.8 17 131.2C17.8023 131.394 18.6356 131.425 19.45 131.29C22.35 138.65 33.1 142.7 46.7 142.29C46.85 142.77 47.03 143.29 47.23 143.72C34.31 153.68 13.14 168.31 14.24 182.56H14.29ZM50.34 126.71C58.41 128.05 62.18 122.83 64.34 125.08C65.34 126.17 66.64 128.96 66.64 135.02C64.6647 135.398 62.7412 136.009 60.91 136.84C55.55 130.27 47.26 130.7 46.23 137.32C45.05 133.58 46.83 126.13 50.29 126.71H50.34ZM77.69 140C75.45 140 66.43 143.33 68.51 145.16C69.97 146.43 75.92 142.28 79.66 142.31C80.7568 143.914 81.4843 145.741 81.79 147.66C77.13 148.88 72.21 151.37 73.27 153.07C74.33 154.77 79.48 151.27 82.19 150.79C85.19 164.39 64.26 183.03 40.53 189.31C31.6 191.67 24.65 192.19 18.22 186.86C11 175 34 156.2 45.37 148.37C47.19 147.13 50.53 144.76 49.95 143.56C44.95 133.22 54.39 132.56 59.62 139.24C59.8014 139.455 60.0502 139.603 60.3261 139.659C60.602 139.716 60.8888 139.677 61.14 139.55C67.33 136.57 75.07 136.54 77.69 140ZM75.23 130.37C73.89 123.46 70.72 117.86 66.9 117.37C62.21 116.76 60.26 120.03 54.47 120.75C50.3 121.27 46.3 119.31 42.54 123.33C40.6268 125.49 39.2037 128.038 38.3682 130.8C37.5328 133.562 37.3048 136.472 37.7 139.33C31.01 138.41 24.23 136.03 21.78 130.33C25.49 129.76 27.5 114.74 23.14 107.15C26.93 105.47 28.34 101.23 28.74 98.62C33.41 100.68 39.59 99.72 44.89 90.71C48.51 93.83 56.65 94.09 63.34 85.31C68.01 89.84 72.94 90.73 77.99 88.31C85.58 103 88 119.92 75.23 130.33V130.37ZM86.77 111.95C87.06 103.71 84.33 95.06 80.52 87.63C90 87.6 94.37 105.6 86.77 111.91V111.95ZM86.71 85.83C84.19 85.3 84.89 81.22 85.1 80.5C86.86 81.5 89.51 82.9 89.97 81.92C90.43 80.94 87.69 79.29 85.87 78.17C86.4251 76.9473 87.1748 75.8227 88.09 74.84C89.94 76 92.63 78.11 93.54 77C94.33 76 91.54 74.44 89.9 73.24C91.8653 71.6126 94.3488 70.7434 96.9 70.79C102.38 71.02 103.5 74.23 105.24 74.25C106.98 74.27 108.31 71.92 110.33 71.72C115.73 71.2 115.48 80.05 114.03 81.72C111.1 85.05 94 87.29 86.71 85.79V85.83ZM97.71 131.13C104.71 125 111.59 120.77 113.44 110.7C116.32 94.8 122.89 89.4 132 87.41C138.16 86.07 140.66 87.61 143.12 86.96C145.9 86.22 146.12 84.57 152.48 82.64C176.77 75.26 196.68 99.76 182.8 129.69C181.011 128.961 179.141 128.451 177.23 128.17C177.23 123.17 175.95 118.27 173.8 115.04C174.34 103.91 159.52 96.77 152.23 103.59C145.59 97.59 149.12 100.74 140.44 105.1C129.06 93.66 111.44 108.76 120.44 121.86C118.027 125.161 116.811 129.185 116.99 133.27C104 137.76 99.56 149 97.19 157.06C89.56 148.27 92.16 135.94 97.68 131.09L97.71 131.13ZM138.09 122.75C125.49 131.28 112.86 112.1 126.38 104.75C128.117 103.941 130.039 103.614 131.945 103.803C133.852 103.992 135.673 104.69 137.217 105.823C138.762 106.957 139.973 108.485 140.725 110.247C141.476 112.009 141.741 113.941 141.49 115.84C140.167 116.354 139.082 117.342 138.448 118.612C137.814 119.883 137.675 121.343 138.06 122.71L138.09 122.75ZM122.18 123.88C126.8 128.04 134.06 128.31 139.27 125.03C140.49 127.16 143.35 125.74 142.03 124.26C140.32 122.35 140.19 120.75 140.81 119.57C142.05 117.21 145.67 117.51 147.17 118.87C150.95 129.98 168.72 129.61 172.96 118.95C175.15 124.34 175.36 132.53 172.56 138.02C163.63 122.95 140.92 129.85 137.86 145.9C125 147.44 114.28 135.43 122.15 123.84L122.18 123.88ZM146.45 115.67C145.685 115.409 144.875 115.31 144.07 115.38C144.231 112.515 143.535 109.667 142.07 107.2C144.096 106.125 145.989 104.816 147.71 103.3C148.466 104.093 149.316 104.791 150.24 105.38C148.891 106.704 147.849 108.308 147.189 110.08C146.529 111.851 146.266 113.746 146.42 115.63L146.45 115.67ZM153.88 105.6C160.88 98.94 174.88 109 170.5 118.22C161.75 133.86 138.63 117.73 153.85 105.56L153.88 105.6ZM102.17 184.5C93.57 175.04 97.96 143.31 117.36 135.83C119.51 144.37 128.77 149.29 137.82 148.43C139.03 156.92 144.55 162.73 149.94 159.1C150.726 161.299 151.259 163.58 151.53 165.9C146.12 162.9 138.53 161.33 128.4 161.13C127.63 157.98 126.67 154.48 124.94 154.93C123.6 155.27 124.51 157.29 125.39 161.14C112.07 162.87 98.94 170.78 102.17 184.5ZM158.47 183.12C158.196 184.054 157.615 184.868 156.82 185.43C156.09 178.36 153.82 176.59 152.65 177.24C151.29 177.96 154.97 181.96 154.11 186.99C152.519 187.679 150.878 188.244 149.2 188.68C148.82 185.22 148.11 179.91 145.8 181.36C144.56 182.13 146.29 184.15 146.15 189.42C134.96 191.93 115.07 192.35 104.93 186.58C96.37 155.8 162.18 156.48 158.47 183.12ZM173.84 186.12C171.31 186.45 165.18 186.79 161.1 183.2C162.29 177.39 159.32 171.64 154.25 167.68C154 163.22 152.17 155.8 149.25 151.76C147.89 149.88 145.66 147.56 144.49 148.94C143.16 150.52 148.08 153.3 148.77 156.34C143.63 162.22 136.77 145.51 142.94 140.28C146.72 140.67 150.08 142.28 150.83 141.28C151.83 139.85 147.48 138.28 144.91 138C146.312 136.546 147.907 135.291 149.65 134.27C153.54 134.59 156.1 136.52 157.39 135.35C158.34 134.49 155.56 133.01 153.39 132.5C160.91 130.76 166.79 132.87 171.32 139.97C181.25 155.55 188.34 183.23 173.84 186.12ZM181.97 183.94C189.16 174.36 180.24 150.18 174.13 140.33C175.867 137.412 176.894 134.127 177.13 130.74C190.62 132.18 193.49 146.42 192.6 156.82C191.28 171.87 187.14 180.63 182 183.94H181.97Z"></path><path id="Vector_11" fill="#001434" d="M127.27 52.8C125.921 53.5435 124.392 53.897 122.854 53.8211C121.316 53.7451 119.829 53.2427 118.56 52.37C115.66 53.98 110.56 53.37 109.35 52.31C109.24 52.1959 109.107 52.1065 108.96 52.048C108.813 51.9895 108.655 51.9631 108.497 51.9707C108.339 51.9783 108.184 52.0196 108.043 52.0919C107.902 52.1643 107.778 52.2659 107.68 52.39C105.98 55.49 114.95 56.82 118.56 55.06C121.1 56.74 129.31 56.49 128.82 53.41C128.72 52.77 127.87 52.54 127.27 52.8Z"></path><path id="Vector_12" fill="#001434" d="M158.78 121.61C164.98 121.83 167.62 119.61 167.49 116.15C167.36 112.69 164.61 109.32 159.62 109.15C154.38 109.15 151.39 112.55 151.11 115.83C150.83 119.11 153.2 121.41 158.78 121.61ZM154.78 113.61C155.712 112.591 156.986 111.951 158.36 111.81C158.01 114.201 158.01 116.629 158.36 119.02C153.75 119.18 152.22 117.14 154.76 113.62L154.78 113.61Z"></path><path id="Vector_13" fill="#001434" d="M40.33 103.67C31.04 102.54 22.4 112.46 28.78 119.05C33.68 124.11 48.96 119.05 48.95 112.61C48.94 107.47 45.71 104.33 40.33 103.67ZM38.61 117.82C39.25 113.82 38.14 109.16 37.23 106.32C46.26 104.43 51.46 115.61 38.61 117.82V117.82Z"></path><path id="Vector_14" fill="#001434" d="M66.93 94.76C68.99 94.28 71.44 94.56 72.09 93.21C73.58 90.09 59.57 91.91 62.09 95.52C62.82 96.51 64.72 95.27 66.93 94.76Z"></path><path id="Vector_15" fill="#001434" d="M62.48 99.11C57.82 102.11 58.48 110.19 61.71 112.31C67.27 116 80 112.62 81 106.23C82.74 95.81 69.52 94.52 62.48 99.11ZM78.48 105.92C78.36 107.92 73.74 110.33 71.15 110.82C71.3516 106.861 71.0763 102.893 70.33 99C74.57 98.42 78.84 100.39 78.49 105.92H78.48Z"></path><path id="Vector_16" fill="#001434" d="M141 34.28C138.82 32.73 130.74 32.17 128.14 33.43C124.59 35.16 123.77 43.43 127.58 45.69C130.58 47.48 136.9 48.12 140.06 46.34C143.22 44.56 144.5 36.8 141 34.28ZM128.5 43.47C132.02 41.89 137.04 39.41 140.19 36.89C143.24 45.06 134.62 46.84 128.5 43.47Z"></path><path id="Vector_17" fill="#001434" d="M138 131.31C139.858 132.31 141.983 132.704 144.076 132.435C146.169 132.166 148.125 131.248 149.67 129.81C151.12 128.29 149.67 126.34 148.19 127.81C146.71 129.28 142.57 130.68 139.13 128.96C138.818 128.81 138.46 128.79 138.134 128.905C137.807 129.019 137.54 129.258 137.39 129.57C137.24 129.882 137.22 130.24 137.335 130.566C137.449 130.893 137.688 131.16 138 131.31V131.31Z"></path><path id="Vector_18" fill="#001434" d="M54.87 106.35C54.5517 106.229 54.1986 106.24 53.8882 106.38C53.5778 106.519 53.3357 106.777 53.215 107.095C53.0943 107.413 53.105 107.766 53.2447 108.077C53.3845 108.387 53.6417 108.629 53.96 108.75C57.09 110.28 56.11 115.34 52.28 115.75C51.9566 115.804 51.6663 115.98 51.4691 116.242C51.2718 116.504 51.1825 116.832 51.2197 117.158C51.2569 117.483 51.4177 117.782 51.669 117.993C51.9202 118.204 52.2427 118.31 52.57 118.29C58.72 118 60.57 108.45 54.87 106.35Z"></path></g></g></g></g></svg>