<svg xmlns="http://www.w3.org/2000/svg" fill="none" viewBox="0 0 200 200"><g id="payment-with-card-2"><g id="Group"><g id="Group_2"><g id="Group_3"><path id="Vector" fill="#3D9CFB" d="M152.11 72.8C137.05 61.21 123.93 52.7 101.43 41.35C95.65 38.43 91.85 38.91 87.25 44.3C80.7 52 73.75 63.82 69.05 71.49C65.85 76.72 66.97 81.76 71.05 85.26C72.34 86.37 109.05 110.03 110.57 110.84C110.57 110.84 108.33 97.53 118.51 93.9C128.69 90.27 143 105.14 143 105.14C150.81 92.32 161.6 80.11 152.11 72.8ZM103 55.38C103.08 57.38 100.37 55.97 100.47 58.3C100.443 58.6007 100.304 58.8802 100.081 59.0837C99.8579 59.2873 99.5669 59.4001 99.265 59.4001C98.9631 59.4001 98.6721 59.2873 98.4492 59.0837C98.2262 58.8802 98.0874 58.6007 98.06 58.3C97.53 55.89 101.83 52.45 103 55.38ZM100.46 50.73C100.494 51.0466 100.402 51.3637 100.203 51.6127C100.005 51.8616 99.7161 52.0224 99.4 52.06C98.7271 52.1102 98.0726 52.3032 97.4801 52.6262C96.8876 52.9492 96.3707 53.3947 95.9638 53.933C95.557 54.4714 95.2695 55.0903 95.1206 55.7484C94.9716 56.4066 94.9646 57.0889 95.1 57.75C95.1372 57.9259 95.1346 58.1079 95.0926 58.2827C95.0506 58.4575 94.9702 58.6208 94.8572 58.7606C94.7442 58.9004 94.6014 59.0133 94.4393 59.0911C94.2772 59.1688 94.0998 59.2094 93.92 59.21C91.39 58.47 92.83 54.28 93.92 52.66C95.01 51.04 99.39 48 100.44 50.73H100.46ZM89.13 49C90 47.18 97.44 42.58 98.66 45.8C98.685 46.1179 98.5834 46.4329 98.3774 46.6763C98.1714 46.9197 97.8777 47.072 97.56 47.1C96.2997 47.1547 95.0662 47.4815 93.9442 48.0581C92.8222 48.6346 91.8382 49.4472 91.06 50.44C90.295 51.5253 89.7639 52.7578 89.5005 54.0592C89.2372 55.3607 89.2472 56.7027 89.53 58C89.5655 58.1752 89.5617 58.3561 89.5189 58.5297C89.4761 58.7032 89.3954 58.8651 89.2826 59.0038C89.1697 59.1424 89.0276 59.2544 88.8664 59.3315C88.7051 59.4087 88.5288 59.4491 88.35 59.45C85.22 58.32 87.56 50.78 89.13 49ZM82.19 66.13C81.48 64.39 79.66 66.13 79.19 64.35C79.1562 64.1957 79.1532 64.0362 79.1812 63.8807C79.2092 63.7253 79.2676 63.5768 79.353 63.444C79.4385 63.3111 79.5494 63.1964 79.6793 63.1065C79.8092 63.0166 79.9556 62.9532 80.11 62.92C80.8968 62.7167 81.7294 62.7871 82.4709 63.1197C83.2124 63.4523 83.8186 64.0272 84.19 64.75C84.76 65.56 84.8 65.55 85.27 65.41C87 64.88 88.27 64.88 89.2 65.41C90.83 66.32 90.78 68.14 91.4 69.57C91.69 69.97 92.4 69.69 93.62 69.02C94.84 68.35 96.35 70.5 94.62 71.22C92.89 71.94 92.52 72.09 91.5 72.09C89.28 72.49 88.82 68.67 88.07 67.52C85.72 67.24 84 69.05 82.19 66.13ZM104.65 94.64C104.552 94.7645 104.431 94.8685 104.293 94.9459C104.155 95.0234 104.004 95.0728 103.847 95.0914C103.69 95.11 103.53 95.0974 103.378 95.0542C103.226 95.0111 103.084 94.9383 102.96 94.84C96.49 89.84 93.54 88.7 86.51 83.51C86.2528 83.3217 86.0808 83.0389 86.0321 82.7239C85.9833 82.4088 86.0617 82.0873 86.25 81.83C86.4383 81.5728 86.7211 81.4008 87.0362 81.3521C87.3512 81.3033 87.6728 81.3817 87.93 81.57C91.58 84.23 94.16 85.89 96.43 87.35C97.41 88.43 106.14 92.45 104.65 94.64ZM111.92 78.54C107.92 80.87 105.43 80.68 104.44 76.46C104.27 76.25 101.44 77.86 100.75 77.16C99.35 76.53 99.61 74.63 98.96 73.64C98.5784 73.6014 98.1942 73.6818 97.86 73.87C97.5656 73.992 97.2348 73.9921 96.9404 73.8702C96.646 73.7483 96.412 73.5144 96.29 73.22C96.168 72.9256 96.168 72.5948 96.2899 72.3004C96.4118 72.006 96.6456 71.772 96.94 71.65C99.76 70.22 101.63 72.37 101.85 74.79C105.57 72.92 106.55 74.79 107.5 77.66C107.56 77.66 108.24 77.88 110.71 76.45C110.985 76.3134 111.303 76.2868 111.597 76.3755C111.891 76.4642 112.141 76.6617 112.295 76.9277C112.449 77.1938 112.496 77.5085 112.426 77.808C112.357 78.1075 112.176 78.3692 111.92 78.54V78.54ZM126.56 91.41C124.56 91.66 125.15 87.88 124.65 87.21C122.38 88.72 119.92 87.84 119.98 84.96C119.98 84.5 119.84 83.63 119.63 83.5C116.75 85.33 114.35 86.06 114.38 81.37C114.385 81.0517 114.515 80.748 114.741 80.5237C114.967 80.2995 115.272 80.1726 115.59 80.17C116.78 80.17 116.84 81.54 116.83 82.32C120.2 79.7 122.41 81.67 122.48 85.53C123.36 85.2 125.12 84.23 125.91 84.98C126.4 84.62 129 91 126.56 91.41ZM141.36 84C140.04 84 140.46 82.28 140.06 81.7C132.92 84.96 135.15 78.48 132.99 78.2C126.99 80.32 126.99 80.02 125.99 73.93C122.68 75.16 119.49 74.31 119.46 70.8C119.443 70.6436 119.458 70.4855 119.503 70.3347C119.548 70.184 119.622 70.0436 119.722 69.9218C119.821 69.8 119.944 69.6991 120.083 69.625C120.221 69.5509 120.373 69.505 120.53 69.49C122.01 69.17 121.87 71.79 122.29 71.98C122.71 72.17 124.17 71.87 125.36 71.6C128.69 70.86 128.55 74.72 128.95 76.99C133.78 75.07 135.41 75.08 136.74 80.13C138.29 80.24 140.29 78.39 141.74 79.95C142.84 81 143.4 84 141.36 84Z"></path><path id="Vector_2" fill="#001434" d="M62 114.21C58 115.93 58.31 125.55 63.44 125.82C67.53 126.05 73.54 125.46 74.91 124.32C77.48 122.15 76.7 113.57 72.75 113.1C69.1292 112.831 65.4894 113.207 62 114.21V114.21ZM73.59 117.21C75.89 124.69 69.4 123.78 63.4 123.62C62.46 123.43 61.6 121.46 61.55 119.42C61.38 114.23 69.55 115.81 72.55 115.49C72.8 115.52 73.27 116.07 73.6 117.21H73.59Z"></path><path id="Vector_3" fill="#001434" d="M76 142.27C72.59 142.37 68.43 142.19 65.66 143.75C61.96 145.75 62.82 154.85 67.32 155.16C70.93 155.42 77.02 154.9 78.95 153.45C82.26 151.05 80.54 142.15 76 142.27ZM77.84 146.69C78.57 148.77 78.26 150.96 77.51 151.53C76.89 151.78 66.61 155.28 65.92 150.53C64.54 144.33 70 144.92 74.59 144.74C76.2 144.49 77.32 144.81 77.86 146.69H77.84Z"></path><path id="Vector_4" fill="#001434" d="M51.0699 84.94C52.4043 83.4851 54.2099 82.5486 56.1679 82.2961C58.1259 82.0435 60.1101 82.4912 61.7699 83.56C63.7699 84.45 64.2399 81.5 62.2899 81.11C67.3299 64.44 40.6199 69.3 49.9999 82.6C48.5899 84 49.8799 85.94 51.0699 84.94ZM55.1399 72.69C54.8716 75.1047 54.9423 77.5449 55.3499 79.94C54.1634 80.138 53.0261 80.5624 51.9999 81.19C49.0599 77.86 50.8999 72.77 55.1399 72.69Z"></path><path id="Vector_5" fill="#001434" d="M39.6699 88.76C39.5394 88.6711 39.3925 88.6088 39.2378 88.5767C39.0831 88.5447 38.9236 88.5435 38.7685 88.5732C38.6133 88.6029 38.4655 88.663 38.3337 88.75C38.2018 88.8369 38.0884 88.9491 37.9999 89.08C36.9999 91.51 40.7899 92.49 42.7399 92.59C47.5199 92.82 50.7999 87.77 48.6899 86.7C46.2799 85.48 46.1099 92.32 39.6699 88.76Z"></path><path id="Vector_6" fill="#001434" d="M68 66.52C66 64.01 51.71 65.43 45.4 65.74C40.83 66 34.61 67 23.78 68.06C9.11 69.45 13.93 78.62 16.43 94.54C17.82 103.38 26.43 99.25 39.6 97.66C46.39 96.83 62.11 94.95 67.53 94.38C72.19 93.89 73.53 88.52 71.32 88.23C69.65 88 71 91.12 66.12 92C52.76 94.25 38.12 95.38 24.05 97.19C17.17 98.07 18.4 91.19 16.22 79.19C15.04 72.7 17.59 71.31 24.09 70.48C35.44 69.02 41.09 68.39 45.58 68.17C50.07 67.95 63.25 66.67 66.29 68.26C67.68 69 68.94 67.73 68 66.52Z"></path><path id="Vector_7" fill="#001434" d="M73 127.55C64 127.67 57.86 131.28 62.37 139.55C64.1 142.71 77.94 139.77 78.37 136.33C79 131.33 77.8 127.49 73 127.55ZM76 136.11C75.73 137.31 65.32 140.19 64.1 137.84C62.42 134.64 62.23 130.25 70.37 129.73C74.62 129.46 77.25 130.28 76 136.11V136.11Z"></path><path id="Vector_8" fill="#001434" d="M22.8699 88.66C24.3599 89.98 25.0699 86.54 29.3599 85.99C31.4193 85.7034 33.5136 86.157 35.2699 87.27C37.2699 88.16 37.7499 85.21 35.7999 84.81C40.7999 68.14 14.1199 73.01 23.5299 86.31C22.7999 86.85 21.9999 87.89 22.8699 88.66ZM24.0499 79.4C24.5899 77.4 26.5599 76.4 28.6399 76.4C28.3768 78.8149 28.4475 81.2544 28.8499 83.65C27.6541 83.8424 26.5065 84.2634 25.4699 84.89C24.824 84.1475 24.3595 83.2651 24.1131 82.3123C23.8666 81.3596 23.845 80.3626 24.0499 79.4V79.4Z"></path><path id="Vector_9" fill="#001434" d="M43.67 129C47.52 129.16 53.36 128 55.19 127C58.46 124.57 56.3 116 52.45 116C49.73 115.86 41.84 116.46 40.32 118.71C38.8 120.96 39.44 128.83 43.67 129ZM42.27 120.08C42.9 119.24 48.86 118.15 52.33 118.37C54.61 119.01 54.52 124.54 54.03 124.91C52.68 125.65 47.33 126.75 43.77 126.6C41.67 126.09 41.89 120.45 42.27 120.06V120.08Z"></path><path id="Vector_10" fill="#001434" d="M45.3899 34.81C40.4799 30.91 39.8999 39.53 34.1899 35.88C34.0507 35.8052 33.8981 35.7585 33.7409 35.7426C33.5836 35.7267 33.4248 35.7419 33.2734 35.7874C33.1221 35.8329 32.9812 35.9078 32.8587 36.0078C32.7363 36.1077 32.6348 36.2308 32.5599 36.37C32.4851 36.5092 32.4384 36.6618 32.4225 36.819C32.4066 36.9763 32.4218 37.1351 32.4673 37.2865C32.5128 37.4379 32.5877 37.5788 32.6877 37.7012C32.7876 37.8236 32.9107 37.9252 33.0499 38C38.3999 40.83 41.2599 36.54 42.6999 36.19C44.1399 35.84 45.1599 38.11 47.1699 38.1C49.1799 38.09 51.8099 34.05 50.3099 33.17C50.0374 33.0068 49.7117 32.9572 49.403 33.0321C49.0943 33.1069 48.8274 33.3001 48.6599 33.57C46.7999 36.12 46.9299 36 45.3899 34.81Z"></path><path id="Vector_11" fill="#001434" d="M28.44 27.23C31.53 32.3 35.06 30.85 36.77 26.97C37 26.46 37.77 26.44 38.23 26.75C41.35 28.87 43.46 28.59 46.61 25.35C46.7209 25.2377 46.8087 25.1047 46.8683 24.9585C46.9278 24.8123 46.958 24.6558 46.9571 24.4979C46.9561 24.3401 46.9241 24.184 46.8629 24.0385C46.8016 23.893 46.7123 23.761 46.6 23.65C46.4877 23.5391 46.3547 23.4513 46.2085 23.3917C46.0623 23.3322 45.9058 23.302 45.7479 23.3029C45.59 23.3039 45.4339 23.3359 45.2884 23.3971C45.1429 23.4584 45.0109 23.5477 44.9 23.66C40.49 29.41 38.64 19.66 34.57 26.05C33.69 27.41 32.82 29.45 30.26 25.63C27.7 21.81 25.21 29.12 22.91 29.12C22.76 29.12 21.96 28.84 20.91 26.18C20.8602 26.0273 20.7784 25.8869 20.67 25.7682C20.5616 25.6496 20.4292 25.5554 20.2816 25.492C20.1339 25.4286 19.9745 25.3974 19.8138 25.4005C19.6532 25.4036 19.4951 25.441 19.35 25.51C17.86 26.51 19.9 31.27 22.53 31.51C25.16 31.75 26.79 28.88 28.44 27.23Z"></path><path id="Vector_12" fill="#001434" d="M41.27 46.61C39.84 46.61 38.6199 46.21 35.5299 44.67C35.1254 44.4594 34.6678 44.3727 34.2143 44.4207C33.7607 44.4687 33.3314 44.6493 32.9799 44.94C30.2999 47.31 28.6399 48.19 27.1399 46.28C25.0699 43.65 25 49.28 28.53 49.69C31.31 49.99 33.5299 47.16 34.4199 47.03C35.3099 46.9 38.2 49.51 41.61 49.03C42.448 48.9522 43.2614 48.7047 44.0007 48.3024C44.7399 47.9001 45.3896 47.3515 45.91 46.69C46.7 45.69 50.33 48.69 51.2 47.57C52.89 45.44 47.33 44.39 46.41 44.33C44.62 44.24 44.19 46.56 41.27 46.61Z"></path><path id="Vector_13" fill="#001434" d="M152 90.8C151.64 91.37 151.26 92.1 150.57 93.17C167.93 102.1 171.49 107.82 179.97 128.28C168.57 152.89 137.12 152.01 130.1 152.93C113.6 126.58 109.42 107.67 114.55 99.59C121.95 87.93 138.85 102.1 145.41 110.31C146.78 112.01 149.46 110.4 148.41 109.24C132.81 91.32 120.26 88.88 113.22 96.24C106.18 103.6 109.35 120.54 120.58 141.54C106.09 140.62 96.35 131.45 94.16 118.3C99.46 120.67 104.73 122.06 104.5 120.3C104.27 118.54 98.8 118.51 93.7 115.3C92.11 105.94 94.75 103.3 92.45 102.77C89.23 102.03 86.39 143.86 122.24 144.55C123.91 147.49 125.63 150.37 127.35 153.15C117.35 157.8 123.06 169.8 132.45 189.83C132.515 189.979 132.609 190.114 132.727 190.225C132.845 190.337 132.985 190.423 133.137 190.479C133.29 190.535 133.452 190.56 133.615 190.551C133.777 190.543 133.936 190.501 134.082 190.429C134.227 190.357 134.357 190.257 134.463 190.133C134.569 190.01 134.648 189.866 134.696 189.711C134.745 189.556 134.761 189.392 134.745 189.23C134.728 189.069 134.679 188.912 134.6 188.77C123.48 166.18 123.81 159.86 125.34 157.69C127.43 154.69 132.88 156.03 146.49 153.82C160.1 151.61 172.9 146 181.36 131C181.45 130.48 194.44 158.27 195 149.81C177.35 125.73 181.68 103.92 152 90.8Z"></path><path id="Vector_14" fill="#001434" d="M48.0699 157.82C51.6999 158 57.6299 157.42 59.5699 156.04C62.7899 153.83 61.9899 144.78 57.4399 144.69C51.8399 144.59 42.2799 143.53 43.8599 152.28C44.2399 154.75 45.5699 157.69 48.0699 157.82ZM46.9999 148.13C52.1299 146.88 62.5899 144.72 58.1599 154.13C57.0999 154.89 52.0799 155.68 48.1599 155.46C46.4999 155.65 45.2999 148.55 46.9999 148.13Z"></path><path id="Vector_15" fill="#001434" d="M81.77 97.33C80.01 97.1 81.22 101.8 81.43 105.49C82.11 117.49 95.61 165.6 77.43 164.59C60.22 163.59 26.72 177.23 20.7 165.29C14.68 153.35 15.39 126.1 13 107.86C11.29 95.12 6.26997 69.71 8.09997 61.73C8.97997 57.85 13.68 54.11 17.83 53.86C18.03 55.42 18.17 57.01 18.26 58.63C14.68 58.88 15.2 60.72 15.89 61.15C18.38 62.7 65.53 55.03 65.89 54.39C66.1785 54.308 66.4241 54.1174 66.5751 53.8582C66.7261 53.5991 66.7709 53.2915 66.7 53C66.29 51.92 63.58 52.49 60.98 53C60.75 51.33 60.49 49.64 60.18 47.94C70.49 47 72.15 50 75.4 54.45C76.26 55.62 78.19 54.45 77.63 53.29C74 45.82 68 44.77 59.74 45.5C57.54 33.98 55.23 22.74 53.34 10.75C53.01 8.63 49.81 13.38 48.06 13.27C47.06 13.2 46.06 12 44.72 10.27C42.57 7.56001 40.59 13.87 37.13 14.07C35.52 14.17 32.2 8.67 30.74 11.21C27.09 17.5 26.45 17.56 22.91 14.02C20.55 11.63 19.67 18.3 16.82 17.95C14.82 17.7 14.48 15.95 13.43 16.61C8.56997 19.61 16.43 39.61 17.43 51.47C10.84 53.26 5.99997 55.7 5.23997 62.2C3.84997 73.47 8.99997 96.78 10.08 108.66C11.82 127.3 13.78 159.85 18.83 167.53C27.6 180.86 59.89 166.37 77.63 166.99C99.14 167.74 85.63 121.26 83.81 105.17C83.2 99.72 84 97.61 81.77 97.33ZM14.24 19.6C17 21.34 20.17 20.85 22.09 17C26.36 20.86 29.6 19 32.09 13.77C36.65 18.98 39.69 16.95 43.28 12.53C46.03 16.53 47.91 17.53 51.28 14.22C52.77 27.28 56.9 40.62 58.64 53.39C47.83 55.39 33.88 57 20.64 58.39C19.68 43 13.63 29.31 14.24 19.6Z"></path><path id="Vector_16" fill="#001434" d="M68.8 98.45C58.91 98.6 53.31 101.38 58.54 110.64C63.45 113.3 74.85 110.58 74.19 107.2C74.52 101.92 73.62 98.38 68.8 98.45ZM71.8 107.01C71.69 108.39 67.8 108.92 61.96 109.28C59.09 109.48 59.41 107.1 59.19 104.28C58.11 101.28 64.9 101.2 69.04 100.84C72 101 71.82 102.36 71.79 107L71.8 107.01Z"></path><path id="Vector_17" fill="#001434" d="M20.9999 116.67C26.3999 117.42 36.2899 117.91 35.1299 109.47C34.7899 107.03 33.6199 104.07 31.1299 103.82C26.3199 103.82 17.9099 103.24 17.9399 110.36C17.8399 112.79 18.7799 115.79 20.9999 116.67ZM21.6399 107.4C25.5399 106.69 32.1499 103.4 32.7399 109.75C32.9599 111.58 32.5399 113.22 31.7999 113.48C28.3099 114.7 23.1599 114.94 21.8999 114.48C20.1799 114 19.5699 108.09 21.5899 107.4H21.6399Z"></path><path id="Vector_18" fill="#001434" d="M42.72 114.43C45.8471 114.328 48.9456 113.799 51.93 112.86C56.32 111.45 55 101.44 50.74 101.26C47.03 101.44 36.74 100.26 36.85 107.15C36.87 110.94 38.73 114.83 42.72 114.43ZM39.25 107.19C39.25 106.73 39.36 105.19 40.25 104.9C43.02 103.9 51.6 100.78 52.25 106.9C52.45 108.7 52 110.36 51.25 110.61C44.75 112 39.25 114.43 39.25 107.19V107.19Z"></path><path id="Vector_19" fill="#001434" d="M37.37 126.84C37.37 123.84 37.01 120.95 35.54 119.59C33.93 117.8 28.92 118.78 26.54 118.91C17.67 119.4 18.84 125.98 22.2 130.79C26.53 132.84 37.35 130.2 37.37 126.84ZM28.29 121.16C32.78 120.16 35.68 120.72 34.97 126.69C34.9 127.87 33.45 128.82 25.91 129.44C23 129.69 22.57 127.8 22.26 124.53C22 122.09 22.92 121.81 28.29 121.16Z"></path><path id="Vector_20" fill="#001434" d="M43.7 143C46.93 143.67 53.11 142.93 55.7 142.23C59.61 141.18 59.36 130.99 54.93 130.8C50.5 130.61 39.87 129.8 41.2 137.99C41.35 140 42.11 142.49 43.7 143ZM43.57 136.32C44.04 132.19 51.44 133.32 54.69 133.2C56.56 133.45 56.14 139.94 54.98 139.93C52.41 140.7 46.03 141.08 44.46 140.71C43.6752 139.371 43.3619 137.808 43.57 136.27V136.32Z"></path><path id="Vector_21" fill="#001434" d="M29.46 160.5C40.58 160.05 43.2 159.34 40.87 149.97C39.73 145.39 26.13 147.44 24.72 150.68C23.31 153.92 23.83 160.73 29.46 160.5ZM26.81 151.87C28.37 149.57 34.7 149.36 36.41 149.34C39.26 149.34 39.98 155.04 39.09 156.1C36.65 159 27.24 158.64 26.96 157.32C26.61 155.64 25.88 153.24 26.81 151.87V151.87Z"></path><path id="Vector_22" fill="#001434" d="M24.87 146.08C27.03 147.3 40.63 145.89 39.17 138.92C38.64 136.38 38.73 133.1 35.29 132.92C31.65 132.74 22.09 132.36 21.98 138.75C21.86 141.54 23.11 145.08 24.87 146.08ZM24.39 138.63C25.08 134.75 32.77 135.42 34.99 135.31C36.32 135.15 37.77 142.02 35.93 142.58C29.08 144.12 24.18 146.7 24.39 138.63V138.63Z"></path></g></g></g></g></svg>